<svg width="53" height="32" viewBox="0 0 53 32" fill="none" xmlns="http://www.w3.org/2000/svg">
<path fill-rule="evenodd" clip-rule="evenodd" d="M35.8403 17.623C36.17 17.623 36.4965 17.6879 36.8011 17.814C37.1057 17.9401 37.3825 18.125 37.6156 18.3582C37.8488 18.5913 38.0337 18.8681 38.1598 19.1727C38.2859 19.4773 38.3508 19.8038 38.3507 20.1335C38.3507 24.2892 36.1286 28.1388 32.5296 30.2167C28.9306 32.2945 24.4863 32.2945 20.8873 30.2167C17.2883 28.1388 15.0662 24.2892 15.0662 20.1335C15.066 19.4683 15.3299 18.8302 15.7999 18.3595C16.27 17.8888 16.9076 17.6239 17.5728 17.623C17.9025 17.623 18.229 17.6879 18.5336 17.814C18.8382 17.9401 19.115 18.125 19.3481 18.3582C19.5812 18.5913 19.7661 18.8681 19.8923 19.1727C20.0184 19.4773 20.0833 19.8038 20.0832 20.1335C20.0832 22.5039 21.3449 24.6826 23.3977 25.8678C25.4506 27.053 27.9664 27.053 30.0192 25.8678C32.072 24.6826 33.3299 22.5039 33.3299 20.1335C33.3299 19.8038 33.3947 19.4773 33.5209 19.1727C33.647 18.8681 33.8319 18.5913 34.0651 18.3582C34.2982 18.125 34.575 17.9401 34.8796 17.814C35.1842 17.6879 35.5106 17.623 35.8403 17.623Z" fill="white"/>
<path d="M46.8065 11.701C43.604 11.701 41.008 9.10494 41.008 5.90251C41.008 2.70009 43.604 0.104004 46.8065 0.104004C50.0089 0.104004 52.605 2.70009 52.605 5.90251C52.605 9.10494 50.0089 11.701 46.8065 11.701Z" fill="white"/>
<path d="M6.60872 11.701C3.40629 11.701 0.810206 9.10494 0.810206 5.90251C0.810206 2.70009 3.40629 0.104004 6.60872 0.104004C9.81114 0.104004 12.4072 2.70009 12.4072 5.90251C12.4072 9.10494 9.81114 11.701 6.60872 11.701Z" fill="white"/>
</svg>
