<svg width="48" height="49" viewBox="0 0 48 49" fill="none" xmlns="http://www.w3.org/2000/svg">
<path d="M17.8385 14.2227H21.2762C22.1661 14.2227 23.1178 14.2199 23.9102 14.6894C25.0179 15.3457 25.5264 16.5899 25.2643 17.8389C25.0384 18.9188 24.5348 19.9715 24.1643 21.0087C23.4241 23.082 22.6592 25.1467 21.9036 27.2144C21.2027 29.1324 20.5347 31.0639 19.8114 32.9737C19.632 33.4474 19.4702 33.9279 19.2928 34.4023C19.2328 34.5627 19.186 34.8401 19.0315 34.9368C18.7365 35.1217 18.0039 34.9827 17.6599 34.9827H14.0883C14.4636 33.3991 15.223 31.8245 15.7824 30.295C16.8757 27.3057 17.9506 24.3095 19.0463 21.3213C19.5217 20.0248 20.1612 18.6934 20.4726 17.3478H17.7492C17.4981 17.3478 16.9562 17.2457 16.7451 17.3937C16.4801 17.5795 16.368 18.3009 16.257 18.5979C15.8464 19.6959 15.4621 20.8037 15.0515 21.9016C14.0365 24.6163 13.0715 27.3497 12.0769 30.0717C11.4851 31.6911 10.7473 33.32 10.2934 34.9827L8.77027 34.9485L5.29316 34.9381L8.0588 27.3484L13.8228 11.4993L16.0997 5.24895L17.3474 1.76662C14.3205 2.62563 11.4598 4.05925 8.99872 6.02797C6.71217 7.85713 4.71822 10.1155 3.25854 12.6601C-2.00161 21.8299 -0.591086 33.7176 6.90557 41.252C9.27606 43.6345 12.1376 45.5498 15.2937 46.7267C16.2045 47.0664 17.3056 47.5745 18.2849 47.6173C18.5028 46.6976 18.9397 45.7829 19.2648 44.894L21.0059 40.1169C22.9464 34.8063 24.8679 29.4886 26.81 24.1786C27.6368 21.918 28.4721 19.6592 29.2815 17.3925C29.5208 16.7216 29.7775 16.0563 30.0115 15.3834C30.1204 15.0686 30.2061 14.5844 30.4213 14.3261C30.5731 14.1443 30.9758 14.2227 31.1874 14.2227H33.2857H38.7771C40.0218 14.2227 41.3027 14.2668 42.2108 15.2495C43.3144 16.4442 42.8898 17.9168 42.3956 19.2676C41.8626 20.7248 41.3487 22.1893 40.8049 23.6428C39.8959 26.075 39.0115 28.5194 38.1382 30.9646C37.6458 32.3439 37.3105 33.7646 35.9645 34.5606C35.1167 35.0621 34.138 34.9358 33.1965 34.9414C31.4571 34.9517 29.6623 35.0643 27.9283 34.9381L27.2845 36.6346L26.0671 39.983L23.062 48.2424C23.987 48.4625 25.1621 48.2544 26.0979 48.1607C29.2226 47.8481 32.2629 46.9418 35.0269 45.4435C37.4253 44.1435 39.6383 42.4349 41.4429 40.3848C43.5984 37.9365 45.2712 35.0932 46.2923 31.9915C48.9902 23.7969 46.899 14.4336 40.9076 8.20313C37.3159 4.46834 32.3536 1.75708 27.1693 1.13467C26.0595 1.00143 24.9393 0.873724 23.821 0.873724C23.5598 0.873724 22.8883 0.803748 22.6915 0.989954C22.4757 1.19439 22.3988 1.71428 22.2944 1.98986C21.9693 2.84839 21.6763 3.71924 21.3553 4.57928C20.1591 7.78397 19.0696 11.0311 17.8385 14.2227ZM29.0444 31.8129C29.8623 32.0547 31.0026 31.8576 31.8571 31.8576C32.091 31.8576 32.6277 31.9568 32.808 31.786C33.0737 31.5343 33.1822 30.8606 33.3009 30.5182C33.6335 29.5607 34.0028 28.6155 34.3434 27.6609C35.5729 24.2181 36.7917 20.7586 38.1074 17.3478H35.3394L34.3438 17.3937L33.8956 18.5086L32.8688 21.3213L29.0444 31.8129Z" fill="white"/>
</svg>
