<svg width="56" height="55" viewBox="0 0 56 55" fill="none" xmlns="http://www.w3.org/2000/svg">
<path d="M4.32732 1.00781H52.1239L54.835 3.71846V51.2773L52.1308 53.9814H4.37366L1.60855 51.2163V3.72619L4.32732 1.00781Z" fill="#CCCCCC" stroke="#4D4D4D" stroke-width="1.28333"/>
<path d="M1.77831 12.5881H54.835V36.8501H1.77831V12.5881Z" fill="#0085FF" stroke="#4D4D4D" stroke-width="1.28333" stroke-linejoin="bevel"/>
<path fill-rule="evenodd" clip-rule="evenodd" d="M17.5844 31.4098C13.8046 31.4098 10.7402 28.3435 10.7402 24.5628C10.7402 20.7839 13.8046 17.7203 17.5844 17.7203C21.3679 17.7203 24.4341 20.7839 24.4341 24.5628C24.4341 28.3435 21.3679 31.4098 17.5844 31.4098Z" fill="white"/>
<path fill-rule="evenodd" clip-rule="evenodd" d="M17.5437 29.4472C20.2463 29.4472 22.4316 27.2582 22.4316 24.5584C22.4316 21.8585 20.2463 19.6676 17.5437 19.6676C14.8429 19.6676 12.6539 21.8585 12.6539 24.5584C12.6539 27.2582 14.8429 29.4472 17.5437 29.4472Z" fill="black"/>
<path d="M38.3296 31.4097C34.5491 31.4097 31.4845 28.3451 31.4845 24.5646C31.4845 20.7841 34.5491 17.7195 38.3296 17.7195C42.1101 17.7195 45.1748 20.7841 45.1748 24.5646C45.1748 28.3451 42.1101 31.4097 38.3296 31.4097Z" fill="white"/>
<path fill-rule="evenodd" clip-rule="evenodd" d="M38.2849 29.4472C40.9875 29.4472 43.1729 27.2582 43.1729 24.5584C43.1729 21.8585 40.9875 19.6676 38.2849 19.6676C35.5877 19.6676 33.3969 21.8585 33.3969 24.5584C33.3969 27.2582 35.5886 29.4472 38.2849 29.4472Z" fill="black"/>
<path d="M26.2967 50.249H46.9241L50.2007 46.9735L54.3921 46.9735" stroke="#4D4D4D" stroke-width="1.28333"/>
<path d="M50.2677 25.7719L50.2677 46.91L46.9922 50.1867L46.9922 54.3781" stroke="#4D4D4D" stroke-width="1.28333"/>
<path d="M50.2633 26.5139L50.2633 7.81142L46.9878 4.53476L46.9878 0.343384" stroke="#4D4D4D" stroke-width="1.28333"/>
<path d="M26.7587 4.46805L46.9241 4.46805L50.2007 7.74353L54.3921 7.74352" stroke="#4D4D4D" stroke-width="1.28333"/>
<path d="M27.5045 4.47257L8.80202 4.47257L5.52536 7.74805L1.33398 7.74804" stroke="#4D4D4D" stroke-width="1.28333"/>
<path d="M5.45841 26.514L5.45841 7.81154L8.73389 4.53488L8.73388 0.343506" stroke="#4D4D4D" stroke-width="1.28333"/>
<path d="M5.46329 24.9627L5.46329 46.91L8.73877 50.1867L8.73876 54.3781" stroke="#4D4D4D" stroke-width="1.28333"/>
<path d="M27.505 50.2535L8.80251 50.2535L5.52584 46.978L1.33447 46.978" stroke="#4D4D4D" stroke-width="1.28333"/>
</svg>
