<svg width="53" height="32" viewBox="0 0 53 32" fill="none" xmlns="http://www.w3.org/2000/svg">
<path fill-rule="evenodd" clip-rule="evenodd" d="M17.5764 31.8181C17.2467 31.8182 16.9202 31.7533 16.6156 31.6272C16.311 31.501 16.0342 31.3161 15.8011 31.083C15.568 30.8499 15.3831 30.5731 15.2569 30.2685C15.1308 29.9639 15.0659 29.6374 15.066 29.3077C15.066 25.152 17.2882 21.3024 20.8871 19.2245C24.4861 17.1466 28.9305 17.1466 32.5294 19.2245C36.1284 21.3024 38.3506 25.152 38.3506 29.3077C38.3507 29.9729 38.0868 30.6109 37.6168 31.0817C37.1468 31.5524 36.5091 31.8173 35.844 31.8181C35.5143 31.8182 35.1878 31.7533 34.8832 31.6272C34.5786 31.501 34.3018 31.3161 34.0687 31.083C33.8355 30.8499 33.6506 30.5731 33.5245 30.2685C33.3983 29.9639 33.3335 29.6374 33.3335 29.3077C33.3335 26.9373 32.0719 24.7586 30.019 23.5734C27.9662 22.3882 25.4504 22.3882 23.3975 23.5734C21.3447 24.7586 20.0868 26.9373 20.0868 29.3077C20.0869 29.6374 20.022 29.9639 19.8959 30.2685C19.7697 30.5731 19.5848 30.8499 19.3517 31.083C19.1186 31.3161 18.8418 31.501 18.5372 31.6272C18.2326 31.7533 17.9061 31.8182 17.5764 31.8181Z" fill="white"/>
<path d="M46.8065 11.744C43.604 11.744 41.008 9.14791 41.008 5.94548C41.008 2.74306 43.604 0.146973 46.8065 0.146973C50.0089 0.146973 52.605 2.74306 52.605 5.94548C52.605 9.14791 50.0089 11.744 46.8065 11.744Z" fill="white"/>
<path d="M6.60872 11.744C3.40629 11.744 0.810206 9.14791 0.810206 5.94548C0.810206 2.74306 3.40629 0.146973 6.60872 0.146973C9.81114 0.146973 12.4072 2.74306 12.4072 5.94548C12.4072 9.14791 9.81114 11.744 6.60872 11.744Z" fill="white"/>
</svg>
